<svg width="50" height="50" xmlns="http://www.w3.org/2000/svg">

 <g>
  <title>background</title>
  <rect fill="none" id="canvas_background" height="402" width="582" y="-1" x="-1"/>
 </g>
 <g>
  <title>Layer 1</title>
  <path id="bottom_and_foot" fill="#b24296" d="m17,19.5l0,13c0,0 0.200001,1 1,1l2,0l0,4.099998c0,1.900002 2,1.900002 2,1.900002s2,0 2,-2l0,-4l1,0l1,0l0,4c0,2 2,2 2,2s2,0 2,-1.900002l0,-4.099998l2,0c0.799999,0 1,-1 1,-1l0,-13l-8,0l-8,0z"/>
  <path id="Right_hand" fill="#b24296" d="m36,19.5c-1.099998,0 -2,0.9 -2,2l0,7c0,1.1 0.900002,2 2,2s2,-0.9 2,-2l0,-7c0,-1.1 -0.900002,-2 -2,-2z"/>
  <path id="Left_hand" fill="#b24296" d="m14,19.5c-1.1,0 -2,0.9 -2,2l0,7c0,1.1 0.9,2 2,2s2,-0.9 2,-2l0,-7c0,-1.1 -0.9,-2 -2,-2z"/>
  <path id="Head" fill="#b24296" d="m33,11c0,-0.3 -0.200001,-0.5 -0.5,-0.5c-0.200001,0 -0.299999,0.1 -0.400002,0.2l-2.099998,2.1c-1.299999,-0.8 -3,-1.3 -5,-1.3c-2,0 -3.700001,0.5 -5,1.3l-2.1,-2.1c-0.1,-0.099999 -0.199999,-0.2 -0.4,-0.2c-0.299999,0 -0.5,0.2 -0.5,0.5c0,0.1 0.1,0.3 0.200001,0.4l2,2.1c-1.400002,1.3 -2.200001,3 -2.200001,5.1l16,0c0,-2 -0.799999,-3.8 -2.200001,-5.1l2,-2.1c0.100002,-0.099999 0.200001,-0.2 0.200001,-0.4zm-12,5.5c-0.6,0 -1,-0.4 -1,-1s0.4,-1 1,-1s1,0.4 1,1s-0.4,1 -1,1zm8,0c-0.6,0 -1,-0.4 -1,-1s0.4,-1 1,-1s1,0.4 1,1s-0.4,1 -1,1z"/>
  <path id="svg_1" fill="#b24296" d="m25,1c-13.3,0 -24,10.7 -24,24s10.7,24 24,24s24,-10.700001 24,-24s-10.700001,-24 -24,-24zm0,43c-10.5,0 -19,-8.5 -19,-19s8.5,-19 19,-19s19,8.5 19,19s-8.5,19 -19,19z"/>
 </g>
</svg>